<svg xmlns="http://www.w3.org/2000/svg" xmlns:xlink="http://www.w3.org/1999/xlink" viewBox="0 0 96 96"><defs><style>.cls-1,.cls-7{fill:#dea101;}.cls-2{opacity:0.4;}.cls-3{clip-path:url(#clip-path);}.cls-4{opacity:0.6;}.cls-5{clip-path:url(#clip-path-2);}.cls-6,.cls-7{opacity:0.8;}</style><clipPath id="clip-path"><path class="cls-1" d="M58.59,87.54a26.4,26.4,0,0,0,11.46-8.67c4.77-6.23,5.47-13.31,4.1-20.75a51.37,51.37,0,0,0-6.68-16.63Q58.14,25.55,48.77,9.63c-.2-.35-.44-.68-.77-1.17a39,39,0,0,0-6.12,15,42.2,42.2,0,0,0,6.53,31.25C51.88,60.05,55,65.61,58.07,71.2,60.85,76.33,62.25,81.71,58.59,87.54Z"/></clipPath><clipPath id="clip-path-2"><path class="cls-1" d="M58.59,87.54a26.4,26.4,0,0,0,11.46-8.67c4.77-6.23,5.47-13.31,4.1-20.76a51.32,51.32,0,0,0-6.68-16.62Q58.14,25.55,48.77,9.63c-.2-.35-.44-.68-.77-1.17a39,39,0,0,0-6.12,15,42.2,42.2,0,0,0,6.53,31.25C51.88,60.05,55,65.61,58.07,71.2,60.85,76.33,62.25,81.71,58.59,87.54Z"/></clipPath></defs><g id="LOGO"><path class="cls-1" d="M58.59,87.54a26.4,26.4,0,0,0,11.46-8.67c4.77-6.23,5.47-13.31,4.1-20.76a51.32,51.32,0,0,0-6.68-16.62Q58.14,25.55,48.77,9.63c-.2-.35-.44-.68-.77-1.17a39,39,0,0,0-6.12,15,42.2,42.2,0,0,0,6.53,31.25C51.88,60.05,55,65.6,58.07,71.2,60.85,76.33,62.25,81.71,58.59,87.54Z"/><g class="cls-2"><path class="cls-1" d="M58.59,87.54a26.4,26.4,0,0,0,11.46-8.67c4.77-6.23,5.47-13.31,4.1-20.75a51.37,51.37,0,0,0-6.68-16.63Q58.14,25.55,48.77,9.63c-.2-.35-.44-.68-.77-1.17a39,39,0,0,0-6.12,15,42.2,42.2,0,0,0,6.53,31.25C51.88,60.05,55,65.61,58.07,71.2,60.85,76.33,62.25,81.71,58.59,87.54Z"/><g class="cls-3"><path class="cls-1" d="M48,8.46S86.23,64.09,58.59,87.54L38,59.73l8.09-29.18Z"/></g></g><g class="cls-4"><path class="cls-1" d="M58.59,87.54a26.4,26.4,0,0,0,11.46-8.67c4.77-6.23,5.47-13.31,4.1-20.76a51.32,51.32,0,0,0-6.68-16.62Q58.14,25.55,48.77,9.63c-.2-.35-.44-.68-.77-1.17a39,39,0,0,0-6.12,15,42.2,42.2,0,0,0,6.53,31.25C51.88,60.05,55,65.61,58.07,71.2,60.85,76.33,62.25,81.71,58.59,87.54Z"/><g class="cls-5"><path class="cls-1" d="M48,8.46S72.51,42.77,60.38,77c0,0-.39-2.35-3.32-7.6S50.12,57.18,48,54.08s-5.39-13.34-5.39-13.34Z"/></g></g><g class="cls-6"><path class="cls-1" d="M58.59,87.54a26.4,26.4,0,0,0,11.46-8.67c4.77-6.23,5.47-13.31,4.1-20.75a51.37,51.37,0,0,0-6.68-16.63Q58.14,25.55,48.77,9.63c-.2-.35-.44-.68-.77-1.17a39,39,0,0,0-6.12,15,42.2,42.2,0,0,0,6.53,31.25C51.88,60.05,55,65.61,58.07,71.2,60.85,76.33,62.25,81.71,58.59,87.54Z"/><g class="cls-3"><path class="cls-7" d="M46.18,6S68.4,32,54.06,66c0,0-7.17-13.51-7.88-14.33s-5.39-23.73-5.39-23.73Z"/></g></g><path class="cls-1" d="M37.41,87.54A26.4,26.4,0,0,1,26,78.87c-4.77-6.23-5.47-13.31-4.1-20.76a51.32,51.32,0,0,1,6.68-16.62q9.33-15.95,18.7-31.86c.2-.35.44-.68.77-1.17a39,39,0,0,1,6.12,15,41.51,41.51,0,0,1-6.53,31.25C44.06,60,41,65.61,37.93,71.2,35.15,76.33,33.75,81.71,37.41,87.54Z"/></g></svg>